<?xml version="1.0" standalone="no"?>
<!DOCTYPE svg PUBLIC "-//W3C//DTD SVG 20010904//EN"
 "http://www.w3.org/TR/2001/REC-SVG-20010904/DTD/svg10.dtd">
<svg version="1.0" xmlns="http://www.w3.org/2000/svg"
 width="334.000000pt" height="332.000000pt" viewBox="0 0 334.000000 332.000000"
 preserveAspectRatio="xMidYMid meet">

<g transform="translate(0.000000,332.000000) scale(0.100000,-0.100000)"
fill="#000000" stroke="none">
<path d="M1610 3253 c-36 -13 -43 -23 -541 -693 -80 -107 -160 -216 -177 -242
-18 -27 -36 -48 -40 -48 -4 0 -21 22 -39 48 -18 26 -48 64 -67 85 -30 33 -40
38 -73 35 -36 -3 -43 -10 -136 -133 -166 -222 -357 -506 -403 -601 -113 -231
-94 -461 54 -651 60 -77 189 -160 305 -197 10 -3 23 -20 29 -38 23 -65 98
-204 143 -263 179 -238 450 -411 749 -479 205 -47 518 -40 658 16 21 8 44 6
100 -8 57 -15 110 -19 238 -19 188 0 252 12 387 75 302 140 475 400 490 735 6
142 -14 260 -68 396 l-34 84 -54 3 c-45 3 -173 -18 -217 -35 -6 -2 -21 22 -34
54 -123 309 -383 759 -669 1158 -161 224 -501 674 -528 697 -22 19 -53 28 -73
21z m197 -440 c306 -408 485 -669 648 -948 93 -157 213 -398 263 -525 27 -68
28 -76 13 -84 -88 -48 -236 -168 -280 -228 l-28 -38 -44 56 c-112 141 -307
259 -498 299 -85 17 -223 29 -254 21 -30 -7 -68 -83 -99 -197 -30 -111 -32
-327 -4 -434 42 -164 159 -349 288 -456 35 -28 64 -55 66 -59 5 -13 -68 -18
-208 -15 -408 9 -751 214 -949 567 l-32 57 48 6 c259 33 430 144 522 338 42
90 54 159 49 278 -7 156 -52 253 -239 514 -55 77 -102 145 -105 151 -3 6 57
97 133 202 288 397 528 722 534 722 3 0 82 -102 176 -227z m-1002 -753 c150
-209 249 -359 286 -433 91 -179 72 -345 -53 -482 -280 -305 -807 -126 -808
276 0 110 33 197 137 358 64 99 315 453 318 449 1 -2 56 -77 120 -168z m1045
-875 c297 -72 495 -272 555 -560 18 -86 14 -198 -8 -277 l-12 -41 -74 129
c-94 166 -230 372 -279 424 -31 32 -46 40 -75 40 -39 0 -67 -27 -67 -65 0 -11
48 -92 106 -180 105 -160 192 -301 233 -383 l22 -44 -33 7 c-211 45 -452 269
-518 483 -29 95 -42 218 -30 298 8 63 35 167 47 187 5 8 48 3 133 -18z m1239
-47 c90 -279 9 -577 -206 -758 -98 -83 -195 -126 -351 -156 l-33 -6 19 39 c60
117 68 340 18 486 -14 42 -26 83 -26 90 0 21 118 155 178 202 70 56 194 118
287 144 39 11 75 20 82 20 6 1 20 -27 32 -61z"/>
</g>
</svg>
